
<svg version="1.1" xmlns="http://www.w3.org/2000/svg" xmlns:xlink="http://www.w3.org/1999/xlink" viewBox="0 0 1920 1000">
	
	<g class="g-bg" clip-path="url(#main-clip-path)">
		<image class="bg" width="1920" height="1000" xlink:href="images/bg-main.jpg"></image>		
	</g>
	<defs>
		<clipPath id="#main-clip-path">
			<rect x="0" y="0" stroke="#000000" stroke-miterlimit="10" width="108" height="500"/>
      <rect x="121.5" y="25.5" stroke="#000000" stroke-miterlimit="10" width="55" height="455"/>
      <rect x="192.5" y="9.5" stroke="#000000" stroke-miterlimit="10" width="60" height="484"/>
      <rect x="271.5" y="44.5" stroke="#000000" stroke-miterlimit="10" width="63" height="416"/>
      <rect x="349.5" y="25.5" stroke="#000000" stroke-miterlimit="10" width="208" height="447"/>
      <rect x="574.5" y="44.5" stroke="#000000" stroke-miterlimit="10" width="60" height="446"/>
      <rect x="644.5" y="9.5" stroke="#000000" stroke-miterlimit="10" width="68" height="471"/>
      <rect x="736.5" y="18.5" stroke="#000000" stroke-miterlimit="10" width="49" height="462"/>
		<!-- 	<polygon points="0 285 165 0 465 0 0 800"></polygon>
			<polygon points="0 880 505 0 805 0 230 1000 0 1000"></polygon>
			<polygon points="275 1000 845 0 1145 0 575 1000 0 1000"></polygon> -->
		</clipPath>
	</defs>
</svg>